<svg id="visual" viewBox="0 0 900 600" width="900" height="600" xmlns="http://www.w3.org/2000/svg" xmlns:xlink="http://www.w3.org/1999/xlink" version="1.1"><rect x="0" y="0" width="900" height="600" fill="#001220"></rect><path d="M0 426L21.5 416.5C43 407 86 388 128.8 390.8C171.7 393.7 214.3 418.3 257.2 428.8C300 439.3 343 435.7 385.8 435.3C428.7 435 471.3 438 514.2 435.2C557 432.3 600 423.7 642.8 412.8C685.7 402 728.3 389 771.2 383C814 377 857 378 878.5 378.5L900 379L900 601L878.5 601C857 601 814 601 771.2 601C728.3 601 685.7 601 642.8 601C600 601 557 601 514.2 601C471.3 601 428.7 601 385.8 601C343 601 300 601 257.2 601C214.3 601 171.7 601 128.8 601C86 601 43 601 21.5 601L0 601Z" fill="#fa7268"></path><path d="M0 438L21.5 441.3C43 444.7 86 451.3 128.8 454.5C171.7 457.7 214.3 457.3 257.2 458C300 458.7 343 460.3 385.8 452.8C428.7 445.3 471.3 428.7 514.2 419C557 409.3 600 406.7 642.8 415.8C685.7 425 728.3 446 771.2 446.5C814 447 857 427 878.5 417L900 407L900 601L878.5 601C857 601 814 601 771.2 601C728.3 601 685.7 601 642.8 601C600 601 557 601 514.2 601C471.3 601 428.7 601 385.8 601C343 601 300 601 257.2 601C214.3 601 171.7 601 128.8 601C86 601 43 601 21.5 601L0 601Z" fill="#ef5f67"></path><path d="M0 447L21.5 448C43 449 86 451 128.8 450.3C171.7 449.7 214.3 446.3 257.2 446.3C300 446.3 343 449.7 385.8 456.5C428.7 463.3 471.3 473.7 514.2 479.8C557 486 600 488 642.8 481.7C685.7 475.3 728.3 460.7 771.2 459C814 457.3 857 468.7 878.5 474.3L900 480L900 601L878.5 601C857 601 814 601 771.2 601C728.3 601 685.7 601 642.8 601C600 601 557 601 514.2 601C471.3 601 428.7 601 385.8 601C343 601 300 601 257.2 601C214.3 601 171.7 601 128.8 601C86 601 43 601 21.5 601L0 601Z" fill="#e34c67"></path><path d="M0 540L21.5 539.5C43 539 86 538 128.8 538C171.7 538 214.3 539 257.2 530.3C300 521.7 343 503.3 385.8 494.3C428.7 485.3 471.3 485.7 514.2 488C557 490.3 600 494.7 642.8 500.3C685.7 506 728.3 513 771.2 518.2C814 523.3 857 526.7 878.5 528.3L900 530L900 601L878.5 601C857 601 814 601 771.2 601C728.3 601 685.7 601 642.8 601C600 601 557 601 514.2 601C471.3 601 428.7 601 385.8 601C343 601 300 601 257.2 601C214.3 601 171.7 601 128.8 601C86 601 43 601 21.5 601L0 601Z" fill="#d53867"></path><path d="M0 557L21.5 555.8C43 554.7 86 552.3 128.8 549C171.7 545.7 214.3 541.3 257.2 545.2C300 549 343 561 385.8 563.5C428.7 566 471.3 559 514.2 553.5C557 548 600 544 642.8 539.7C685.7 535.3 728.3 530.7 771.2 535.5C814 540.3 857 554.7 878.5 561.8L900 569L900 601L878.5 601C857 601 814 601 771.2 601C728.3 601 685.7 601 642.8 601C600 601 557 601 514.2 601C471.3 601 428.7 601 385.8 601C343 601 300 601 257.2 601C214.3 601 171.7 601 128.8 601C86 601 43 601 21.5 601L0 601Z" fill="#c62368"></path></svg>