<svg id="visual" viewBox="0 0 900 600" width="900" height="600" xmlns="http://www.w3.org/2000/svg" xmlns:xlink="http://www.w3.org/1999/xlink" version="1.1"><rect x="0" y="0" width="900" height="600" fill="#1c1a1a"></rect><path d="M0 401L129 433L257 405L386 412L514 362L643 402L771 382L900 439L900 601L771 601L643 601L514 601L386 601L257 601L129 601L0 601Z" fill="#45ade8"></path><path d="M0 396L129 474L257 465L386 474L514 459L643 401L771 448L900 418L900 601L771 601L643 601L514 601L386 601L257 601L129 601L0 601Z" fill="#099aee"></path><path d="M0 455L129 477L257 497L386 477L514 499L643 497L771 479L900 456L900 601L771 601L643 601L514 601L386 601L257 601L129 601L0 601Z" fill="#0084f0"></path><path d="M0 541L129 504L257 484L386 512L514 529L643 503L771 513L900 518L900 601L771 601L643 601L514 601L386 601L257 601L129 601L0 601Z" fill="#006ced"></path><path d="M0 562L129 543L257 561L386 567L514 537L643 527L771 557L900 574L900 601L771 601L643 601L514 601L386 601L257 601L129 601L0 601Z" fill="#1850e4"></path></svg>